<svg fill="none" height="64" viewBox="0 0 64 64" width="64" xmlns="http://www.w3.org/2000/svg"><path d="m4 32c0-15.4219 12.4688-28 28-28 15.4219 0 28 12.5781 28 28 0 15.5312-12.5781 28-28 28-15.5312 0-28-12.4688-28-28zm40.5781-4.8125c1.2031-1.2031 1.2031-3.0625 0-4.2656s-3.0625-1.2031-4.2656 0l-11.8125 11.8125-4.9219-4.8125c-1.2031-1.2031-3.0625-1.2031-4.2656 0s-1.2031 3.0625 0 4.2656l7 7c1.2031 1.2031 3.0625 1.2031 4.2656 0z" fill="#cdf8cf"/><path d="m44.5781 22.9219c1.2031 1.2031 1.2031 3.0625 0 4.2656l-14 14c-1.2031 1.2031-3.0625 1.2031-4.2656 0l-7-7c-1.2031-1.2031-1.2031-3.0625 0-4.2656s3.0625-1.2031 4.2656 0l4.9219 4.8125 11.8125-11.8125c1.2031-1.2031 3.0625-1.2031 4.2656 0z" fill="#04b50b"/></svg>